<svg xmlns="http://www.w3.org/2000/svg" xmlns:xlink="http://www.w3.org/1999/xlink" width="231.985" height="149.855" viewBox="0 0 231.985 149.855" class="relative z-30 mb-4 h-28 md:h-32 lg:h-auto transform-reset-3d">
    <defs>
        <linearGradient id="linear-gradient" x1="-347.274" y1="111.17" x2="-347.274" y2="112.17" gradientUnits="objectBoundingBox">
            <stop offset="0" stop-color="#418dbf"/>
            <stop offset="0.859" stop-color="#111987"/>
        </linearGradient>
        <linearGradient id="linear-gradient-2" x1="-0.234" y1="0.863" x2="1.685" y2="0.098" gradientUnits="objectBoundingBox">
            <stop offset="0" stop-color="#418dbf"/>
            <stop offset="0.169" stop-color="#3b80b8"/>
            <stop offset="0.482" stop-color="#2d5da8"/>
            <stop offset="0.9" stop-color="#16278d"/>
            <stop offset="1" stop-color="#111987"/>
        </linearGradient>
        <linearGradient id="linear-gradient-3" x1="0.414" y1="-0.021" x2="0.625" y2="1.059" xlink:href="#linear-gradient-2"/>
    </defs>
    <g data-name="Group 53" transform="translate(-118.866 -130.036)">
        <g data-name="Group 1" transform="translate(118.866 240.45)" class="text-gray-200 fill-current dark:text-white">
            <path id="Path_1" data-name="Path 1" d="M138.732,227.759V209.282q0-4.3-1.807-6.249t-5.608-1.955q-5.112,0-7.484,2.583t-2.37,8.372v15.725h-2.6V199.273h2.2l.5,3.9h.156q2.779-4.458,9.881-4.454,9.7,0,9.7,10.4v18.634Z"
                  transform="translate(-118.866 -188.842)"/>
            <path id="Path_2" data-name="Path 2"
                  d="M149.155,228.282q-6.213,0-9.683-3.825T136,213.737q0-6.815,3.35-10.914a11.074,11.074,0,0,1,9.044-4.1,9.773,9.773,0,0,1,7.941,3.508q2.908,3.515,2.907,9.54v2.1H138.725q.05,5.866,2.736,8.962t7.694,3.093a23.845,23.845,0,0,0,4.286-.341,25.711,25.711,0,0,0,4.676-1.466v2.359a20.9,20.9,0,0,1-4.454,1.427A24.856,24.856,0,0,1,149.155,228.282Zm-.758-27.256a8.526,8.526,0,0,0-6.6,2.713q-2.5,2.714-2.911,7.825h17.61q0-4.955-2.147-7.746A7.1,7.1,0,0,0,148.4,201.026Z"
                  transform="translate(-105.991 -188.842)"/>
            <path id="Path_3" data-name="Path 3"
                  d="M163.048,228.7a19.422,19.422,0,0,0,4.3-.419v2.1A13.764,13.764,0,0,1,163,231q-3.775,0-5.568-2.016t-1.8-6.343v-18.4h-4.217v-1.52l4.217-1.179,1.31-6.447h1.336v6.893h8.359v2.252h-8.359v18.03a8.229,8.229,0,0,0,1.154,4.85A4.189,4.189,0,0,0,163.048,228.7Z"
                  transform="translate(-94.411 -191.563)"/>
            <path id="Path_4" data-name="Path 4"
                  d="M175.244,198.723a22.254,22.254,0,0,1,3.878.366l-.5,2.489a15.206,15.206,0,0,0-3.694-.445,7.176,7.176,0,0,0-5.974,3.091,12.6,12.6,0,0,0-2.335,7.809v15.725h-2.594V199.273h2.2l.263,5.137h.182a12.043,12.043,0,0,1,3.751-4.417A8.779,8.779,0,0,1,175.244,198.723Z"
                  transform="translate(-84.934 -188.842)"/>
            <path id="Path_5" data-name="Path 5"
                  d="M175.744,195.6q0-2.517,1.653-2.515a1.466,1.466,0,0,1,1.268.655,3.207,3.207,0,0,1,.459,1.86,3.29,3.29,0,0,1-.459,1.862,1.45,1.45,0,0,1-1.268.681Q175.742,198.139,175.744,195.6Zm2.962,36.4h-2.6V203.512h2.6Z"
                  transform="translate(-76.13 -193.081)"/>
            <path id="Path_6" data-name="Path 6" d="M191.307,212.873l-9.932-13.836h2.986l8.492,12,8.414-12h2.853l-9.774,13.836,10.485,14.65h-3.014l-8.963-12.71-9.016,12.71h-2.856Z" transform="translate(-72.195 -188.606)"/>
            <path id="Path_7" data-name="Path 7"
                  d="M225.209,213.4q0,7.156-3.778,11.189t-10.508,4.037a14.7,14.7,0,0,1-7.443-1.849,12.285,12.285,0,0,1-4.953-5.3,17.856,17.856,0,0,1-1.73-8.074q0-7.18,3.75-11.165t10.534-3.981a14.8,14.8,0,0,1,7.443,1.832,12.267,12.267,0,0,1,4.953,5.268A17.683,17.683,0,0,1,225.209,213.4Zm-20.261,0q0,4.353,1.429,6.578a5.108,5.108,0,0,0,4.652,2.228,5.024,5.024,0,0,0,4.6-2.214q1.4-2.215,1.4-6.592,0-4.35-1.413-6.526a6.021,6.021,0,0,0-9.254-.014Q204.952,209.03,204.948,213.4Z"
                  transform="translate(-60.312 -189.19)"/>
            <path id="Path_8" data-name="Path 8"
                  d="M243.833,228.107h-7.991V210.993a8.215,8.215,0,0,0-1.128-4.755,4.1,4.1,0,0,0-3.589-1.587,5.4,5.4,0,0,0-4.85,2.242q-1.489,2.238-1.492,7.429v13.785h-7.995v-29.3h6.105l1.077,3.748h.445a8.427,8.427,0,0,1,3.683-3.208,12.5,12.5,0,0,1,5.333-1.088q5.107,0,7.757,2.764T243.833,209Z"
                  transform="translate(-45.291 -189.19)"/>
            <path id="Path_9" data-name="Path 9"
                  d="M250.955,228.631q-7.075,0-11.058-3.9t-3.984-11.06q0-7.364,3.683-11.387t10.181-4.021q6.21,0,9.669,3.536t3.461,9.774v3.879h-18.9a7.7,7.7,0,0,0,2.019,5.321,7.1,7.1,0,0,0,5.294,1.914,21.894,21.894,0,0,0,5-.552,25.143,25.143,0,0,0,4.928-1.755v6.184a18.83,18.83,0,0,1-4.482,1.559A28.317,28.317,0,0,1,250.955,228.631Zm-1.128-24.687a5.072,5.072,0,0,0-3.983,1.613,7.445,7.445,0,0,0-1.65,4.573h11.216a6.667,6.667,0,0,0-1.546-4.573A5.242,5.242,0,0,0,249.828,203.944Z"
                  transform="translate(-30.922 -189.19)"/>
        </g>
        <g id="Group_2" data-name="Group 2" transform="translate(195.604 130.036)">
            <path id="Path_11" data-name="Path 11"
                  d="M183.977,215.784c.016.273.074,1.459-.874,1.886a1.792,1.792,0,0,1-1.93-.263l-17.162-12.028a3.059,3.059,0,0,1-1.046-1.081,2.683,2.683,0,0,1-.284-1.471V144.141a2.634,2.634,0,0,1,1.121-2.357l14.456-10.237a5.259,5.259,0,0,1,3.5-1.471,8.738,8.738,0,0,1,2.518.359c2.025.949,2.286,1.636,2.286,1.636-.4-.159-2.778-1.112-2.583,6.906Z"
                  transform="translate(-162.682 -130.006)" opacity="0.9" fill="url(#linear-gradient)"/>
            <path id="Path_12" data-name="Path 12"
                  d="M209.449,130.339a1.777,1.777,0,0,0-1.928.261l-17.162,12.277a3.07,3.07,0,0,0-1.047,1.081,2.72,2.72,0,0,0-.282,1.471v62.327a2.994,2.994,0,0,0,.6,1.872,3.512,3.512,0,0,0,.723.613l15.715,11.016,1.447,1.012a1.783,1.783,0,0,0,1.93.261,1.736,1.736,0,0,0,.877-1.692c0-.081,0-.151-.005-.193V213.1c.005-.137.01-.261.012-.406V132.223C210.339,131.95,210.4,130.762,209.449,130.339Z"
                  transform="translate(-142.885 -129.939)" opacity="0.9" fill="url(#linear-gradient-2)"/>
            <path id="Path_13" data-name="Path 13"
                  d="M186.566,131.929a6.064,6.064,0,0,0-8.27-.51L163.84,141.654a2.638,2.638,0,0,0-1.119,2.359v4.3c.965-2.245,3.342-5.9,8.221-1.823a35.346,35.346,0,0,1,2.66,2.62l10.412,10.272,24.794,24.465L230.1,204.852V174.435Z"
                  transform="translate(-162.653 -130.036)" opacity="0.9" fill="url(#linear-gradient-3)"/>
        </g>
    </g>
</svg>
