<svg height="212" viewBox="0 0 212 212" width="212" xmlns="http://www.w3.org/2000/svg"><g fill="none" fill-rule="evenodd"><circle cx="106" cy="106" fill="#fff" r="102.5" stroke="#000" stroke-width="7"/><path d="m48.067193 126.68 11.76-40.62c.48-1.62 1.14-3.06 3.06-3.06 1.98 0 2.7 1.5 3.12 3.06l11.58 40.62c.42 1.44-1.2 3-2.88 3-1.86 0-2.82-1.56-3.24-3l-2.22-7.2h-12.78l-2.28 7.2c-.42 1.44-1.38 3-3.24 3-1.68 0-3.3-1.56-2.88-3zm19.5-13.2-4.62-16.26h-.12l-4.68 16.26zm32.7-5.04h11.64v-17.34c0-1.5.72-3 3-3s3 1.5 3 3v17.34c1.56 0 3 .84 3 3s-1.44 3-3 3v12.24c0 1.92-.84 3-3 3s-3-1.08-3-3v-12.24h-17.64v-28.44c0-1.5.72-3 3-3s3 1.5 3 3zm40.2.9v14.34h20.64c1.56 0 3 .84 3 3s-1.44 3-3 3h-26.64v-19.56c0-4.5 2.28-6.78 6.78-6.78h16.86v-14.34h-20.64c-1.56 0-3-.84-3-3s1.44-3 3-3h19.92c1.98 0 3.36.3 4.86 1.68 1.68 1.56 1.86 3.18 1.86 5.34v12.3c0 2.16-.18 3.78-1.86 5.34-1.5 1.38-2.88 1.68-4.86 1.68z" fill="#1b1b1b"/></g></svg>