<svg id="Vrstva_1" data-name="Vrstva 1" xmlns="http://www.w3.org/2000/svg" viewBox="0 0 236.98 83.23"><defs><style>.cls-1{fill:#fff;}.cls-2{fill:#564569;}.cls-3{fill:#54c6d7;}.cls-4{fill:#332543;}.cls-5{fill:#332543;}</style></defs><title>captes_logo_menu</title><path class="cls-5" d="M111.35,138.42a8.69,8.69,0,0,1-1.33,4.39,8.13,8.13,0,0,1-3.44,2.94,11.68,11.68,0,0,1-5.06,1.05,9.34,9.34,0,0,1-7.38-3.06q-2.69-3-2.69-8.62V134a14.44,14.44,0,0,1,1.22-6.12,9.2,9.2,0,0,1,3.5-4,9.79,9.79,0,0,1,5.29-1.43,10.23,10.23,0,0,1,7,2.28,9,9,0,0,1,3,6.28h-5.71a4.27,4.27,0,0,0-1.1-3.12,4.49,4.49,0,0,0-3.13-1,3.45,3.45,0,0,0-3.14,1.6,10.33,10.33,0,0,0-1,5.12v1.68a11.44,11.44,0,0,0,1,5.43,3.51,3.51,0,0,0,3.29,1.64,4.38,4.38,0,0,0,3-.93,4,4,0,0,0,1.12-3Z" transform="translate(-11.89 -87.64)"/><path class="cls-5" d="M127.57,142h-7.86l-1.37,4.44h-6.12l8.72-23.77h5.39l8.78,23.77H129Zm-6.48-4.43h5.11l-2.57-8.24Z" transform="translate(-11.89 -87.64)"/><path class="cls-5" d="M142.57,138.4v8.07h-5.73V122.7h9.49a11.06,11.06,0,0,1,4.83,1,7.53,7.53,0,0,1,3.24,2.86,7.78,7.78,0,0,1,1.16,4.2,6.88,6.88,0,0,1-2.49,5.56,10.33,10.33,0,0,1-6.84,2.08Zm0-4.42h3.76a3.56,3.56,0,0,0,2.54-.83,3.11,3.11,0,0,0,.87-2.35,3.85,3.85,0,0,0-.9-2.67,3.16,3.16,0,0,0-2.44-1h-3.83Z" transform="translate(-11.89 -87.64)"/><path class="cls-5" d="M177.27,127.12h-7.13v19.35h-5.73V127.12h-7V122.7h19.87Z" transform="translate(-11.89 -87.64)"/><path class="cls-5" d="M194.43,136.38h-9v5.68h10.65v4.41H179.69V122.7H196.1v4.42H185.42v5h9Z" transform="translate(-11.89 -87.64)"/><path class="cls-5" d="M210.67,140.15a2.37,2.37,0,0,0-.89-2,11.14,11.14,0,0,0-3.13-1.45,31.67,31.67,0,0,1-3.66-1.45q-4.62-2.28-4.62-6.24a5.59,5.59,0,0,1,1.15-3.49,7.48,7.48,0,0,1,3.26-2.35,12.65,12.65,0,0,1,4.73-.84,11.11,11.11,0,0,1,4.6.91,7.24,7.24,0,0,1,3.16,2.61,6.81,6.81,0,0,1,1.13,3.86h-5.72a2.84,2.84,0,0,0-.89-2.25,3.42,3.42,0,0,0-2.41-.8,3.91,3.91,0,0,0-2.42.67,2.08,2.08,0,0,0-.89,1.73,2.06,2.06,0,0,0,1,1.65,12.21,12.21,0,0,0,3.44,1.54,20.87,20.87,0,0,1,4,1.71q3.86,2.22,3.86,6.12a5.83,5.83,0,0,1-2.35,4.9,10.51,10.51,0,0,1-6.45,1.78,12.83,12.83,0,0,1-5.24-1,7.92,7.92,0,0,1-3.53-2.84,7.48,7.48,0,0,1-1.18-4.16h5.75a3.63,3.63,0,0,0,1,2.82,4.7,4.7,0,0,0,3.21.91,3.68,3.68,0,0,0,2.24-.62A2,2,0,0,0,210.67,140.15Z" transform="translate(-11.89 -87.64)"/><path class="cls-5" d="M219.3,145.28a1.43,1.43,0,0,1,.35-1,1.33,1.33,0,0,1,1-.39,1.29,1.29,0,0,1,1.42,1.37,1.34,1.34,0,0,1-.36.95,1.41,1.41,0,0,1-1.06.38,1.36,1.36,0,0,1-1-.38A1.38,1.38,0,0,1,219.3,145.28Z" transform="translate(-11.89 -87.64)"/><path class="cls-5" d="M231.17,144.87a3.28,3.28,0,0,0,2.12-.74,2.57,2.57,0,0,0,1-1.83h2.15a4.11,4.11,0,0,1-.79,2.16,5,5,0,0,1-1.93,1.64,5.52,5.52,0,0,1-2.55.62,5.46,5.46,0,0,1-4.3-1.81,7.16,7.16,0,0,1-1.6-4.94v-.38a7.87,7.87,0,0,1,.71-3.44,5.31,5.31,0,0,1,2-2.34,5.73,5.73,0,0,1,3.14-.83,5.3,5.3,0,0,1,3.7,1.33,4.78,4.78,0,0,1,1.58,3.47h-2.15a3.14,3.14,0,0,0-1-2.12,3,3,0,0,0-2.16-.82,3.17,3.17,0,0,0-2.68,1.24,5.86,5.86,0,0,0-.95,3.59v.43a5.71,5.71,0,0,0,.95,3.53A3.18,3.18,0,0,0,231.17,144.87Z" transform="translate(-11.89 -87.64)"/><path class="cls-5" d="M241.11,144.62h7.76v1.85H238.35v-1.66l7.31-9.72h-7.2v-1.87h10v1.6Z" transform="translate(-11.89 -87.64)"/><path class="cls-5" d="M97.25,157a3.16,3.16,0,0,0-.55,0,1.94,1.94,0,0,0-1.27.42,2.32,2.32,0,0,0-.75,1.22v5h-.8v-7.28h.79v1.16a2.14,2.14,0,0,1,2.06-1.3,1.3,1.3,0,0,1,.53.09Z" transform="translate(-11.89 -87.64)"/><path class="cls-5" d="M101.22,163.74a3.12,3.12,0,0,1-1.68-.46A3.06,3.06,0,0,1,98.37,162a4,4,0,0,1-.42-1.84v-.29a4.3,4.3,0,0,1,.41-1.89,3.34,3.34,0,0,1,1.13-1.33,2.82,2.82,0,0,1,1.58-.48,2.61,2.61,0,0,1,2.1.91,3.66,3.66,0,0,1,.78,2.47V160h-5.2v.15a3.05,3.05,0,0,0,.71,2.06,2.26,2.26,0,0,0,1.79.83,2.58,2.58,0,0,0,1.14-.24,2.41,2.41,0,0,0,.9-.75l.51.38A3,3,0,0,1,101.22,163.74Zm-.15-6.87a2,2,0,0,0-1.53.67,3,3,0,0,0-.76,1.79h4.37v-.09a2.64,2.64,0,0,0-.6-1.71A1.86,1.86,0,0,0,101.07,156.87Z" transform="translate(-11.89 -87.64)"/><path class="cls-5" d="M110.12,163.6a4,4,0,0,1-.16-1,2.75,2.75,0,0,1-1.08.85,3.28,3.28,0,0,1-1.39.3,2.46,2.46,0,0,1-1.7-.59,1.91,1.91,0,0,1-.65-1.48A1.94,1.94,0,0,1,106,160a4.2,4.2,0,0,1,2.47-.62H110v-.83a1.6,1.6,0,0,0-.48-1.23,2,2,0,0,0-1.41-.45,2.24,2.24,0,0,0-1.39.43,1.3,1.3,0,0,0-.56,1h-.8a1.89,1.89,0,0,1,.8-1.5,3.1,3.1,0,0,1,2-.64,2.85,2.85,0,0,1,1.92.61,2.23,2.23,0,0,1,.73,1.7v3.45a4.21,4.21,0,0,0,.22,1.58v.08Zm-2.53-.57a2.62,2.62,0,0,0,1.44-.4,2.34,2.34,0,0,0,.93-1V160h-1.44a3.57,3.57,0,0,0-1.89.44,1.36,1.36,0,0,0-.23,2.19A1.74,1.74,0,0,0,107.59,163Z" transform="translate(-11.89 -87.64)"/><path class="cls-5" d="M113.81,163.6H113V153.26h.81Z" transform="translate(-11.89 -87.64)"/><path class="cls-5" d="M123.72,161.75a1.12,1.12,0,0,0-.49-1,3.76,3.76,0,0,0-1.45-.57,6.68,6.68,0,0,1-1.5-.47,2,2,0,0,1-.8-.65,1.66,1.66,0,0,1-.26-.93,1.71,1.71,0,0,1,.73-1.42,2.87,2.87,0,0,1,1.84-.57,3,3,0,0,1,2,.61,1.92,1.92,0,0,1,.73,1.57h-.8a1.32,1.32,0,0,0-.54-1.07,2.13,2.13,0,0,0-1.35-.42,2.18,2.18,0,0,0-1.28.35,1.11,1.11,0,0,0-.48.92,1,1,0,0,0,.4.85,4.39,4.39,0,0,0,1.46.55,6.46,6.46,0,0,1,1.59.53,2,2,0,0,1,.79.68,1.89,1.89,0,0,1-.49,2.44,3.16,3.16,0,0,1-1.94.55,3.29,3.29,0,0,1-2.07-.62,1.91,1.91,0,0,1-.79-1.56h.81a1.4,1.4,0,0,0,.6,1.11,2.44,2.44,0,0,0,1.45.39,2.28,2.28,0,0,0,1.36-.37A1.13,1.13,0,0,0,123.72,161.75Z" transform="translate(-11.89 -87.64)"/><path class="cls-5" d="M128.07,159.93l-.93.89v2.78h-.8V153.26h.8v6.62l.77-.82,2.78-2.74h1l-3.09,3.07L132,163.6h-1Z" transform="translate(-11.89 -87.64)"/><path class="cls-5" d="M133,154.21a.52.52,0,0,1,.15-.38.53.53,0,0,1,.41-.16.51.51,0,0,1,.4.16.53.53,0,0,1,.16.38.51.51,0,0,1-.16.38.51.51,0,0,1-.4.16.53.53,0,0,1-.41-.16A.5.5,0,0,1,133,154.21Zm1,9.39h-.8v-7.28h.8Z" transform="translate(-11.89 -87.64)"/><path class="cls-5" d="M137.08,163.6h-.8V153.26h.8Z" transform="translate(-11.89 -87.64)"/><path class="cls-5" d="M140.18,163.6h-.81V153.26h.81Z" transform="translate(-11.89 -87.64)"/><path class="cls-5" d="M146.73,161.75a1.14,1.14,0,0,0-.48-1,3.83,3.83,0,0,0-1.45-.57,6.62,6.62,0,0,1-1.51-.47,1.94,1.94,0,0,1-.79-.65,1.59,1.59,0,0,1-.26-.93,1.73,1.73,0,0,1,.72-1.42,2.87,2.87,0,0,1,1.84-.57,3,3,0,0,1,2,.61,1.93,1.93,0,0,1,.74,1.57h-.81a1.32,1.32,0,0,0-.54-1.07,2.09,2.09,0,0,0-1.35-.42,2.12,2.12,0,0,0-1.27.35,1.11,1.11,0,0,0-.48.92,1,1,0,0,0,.4.85,4.21,4.21,0,0,0,1.46.55,6.78,6.78,0,0,1,1.59.53,2,2,0,0,1,.78.68,1.86,1.86,0,0,1-.49,2.44,3.14,3.14,0,0,1-1.94.55,3.24,3.24,0,0,1-2.06-.62,1.9,1.9,0,0,1-.8-1.56h.81a1.4,1.4,0,0,0,.6,1.11,2.44,2.44,0,0,0,1.45.39,2.26,2.26,0,0,0,1.36-.37A1.11,1.11,0,0,0,146.73,161.75Z" transform="translate(-11.89 -87.64)"/><path class="cls-5" d="M149.18,165.44l-.48-.35a3,3,0,0,0,.64-1.71v-1h.78v.84A2.91,2.91,0,0,1,149.18,165.44Z" transform="translate(-11.89 -87.64)"/><path class="cls-5" d="M156.6,154.45v1.87h1.5V157h-1.5v4.86a1.55,1.55,0,0,0,.21.9.86.86,0,0,0,.74.3,4.35,4.35,0,0,0,.65-.07l0,.66a2.81,2.81,0,0,1-.86.11,1.46,1.46,0,0,1-1.21-.48,2.29,2.29,0,0,1-.37-1.42V157h-1.34v-.66h1.34v-1.87Z" transform="translate(-11.89 -87.64)"/><path class="cls-5" d="M163.14,157a3.12,3.12,0,0,0-.54,0,2,2,0,0,0-1.28.42,2.25,2.25,0,0,0-.74,1.22v5h-.8v-7.28h.78l0,1.16a2.13,2.13,0,0,1,2-1.3,1.3,1.3,0,0,1,.53.09Z" transform="translate(-11.89 -87.64)"/><path class="cls-5" d="M169.1,162.68a2.6,2.6,0,0,1-2.32,1.06,2.25,2.25,0,0,1-1.77-.68,2.94,2.94,0,0,1-.62-2v-4.74h.8V161c0,1.39.56,2.08,1.68,2.08a2.06,2.06,0,0,0,2.22-1.45v-5.27h.81v7.28h-.78Z" transform="translate(-11.89 -87.64)"/><path class="cls-5" d="M174.81,163.74a3.12,3.12,0,0,1-1.68-.46A3,3,0,0,1,172,162a4,4,0,0,1-.42-1.84v-.29A4.29,4.29,0,0,1,172,158a3.45,3.45,0,0,1,1.14-1.33,2.8,2.8,0,0,1,1.58-.48,2.61,2.61,0,0,1,2.1.91,3.66,3.66,0,0,1,.78,2.47V160h-5.2v.15a3.05,3.05,0,0,0,.71,2.06,2.26,2.26,0,0,0,1.79.83,2.58,2.58,0,0,0,1.14-.24,2.41,2.41,0,0,0,.9-.75l.5.38A2.93,2.93,0,0,1,174.81,163.74Zm-.14-6.87a2,2,0,0,0-1.54.67,3.09,3.09,0,0,0-.75,1.79h4.37v-.09a2.76,2.76,0,0,0-.6-1.71A1.86,1.86,0,0,0,174.67,156.87Z" transform="translate(-11.89 -87.64)"/><path class="cls-5" d="M186.83,161.75a1.14,1.14,0,0,0-.48-1,3.76,3.76,0,0,0-1.45-.57,6.51,6.51,0,0,1-1.5-.47,2,2,0,0,1-.8-.65,1.66,1.66,0,0,1-.26-.93,1.73,1.73,0,0,1,.72-1.42,2.9,2.9,0,0,1,1.85-.57,3,3,0,0,1,2,.61,1.92,1.92,0,0,1,.73,1.57h-.81a1.31,1.31,0,0,0-.53-1.07,2.13,2.13,0,0,0-1.35-.42,2.16,2.16,0,0,0-1.28.35,1.11,1.11,0,0,0-.48.92,1,1,0,0,0,.4.85,4.39,4.39,0,0,0,1.46.55,6.46,6.46,0,0,1,1.59.53,2,2,0,0,1,.79.68,1.89,1.89,0,0,1-.49,2.44,3.16,3.16,0,0,1-1.94.55,3.29,3.29,0,0,1-2.07-.62,1.89,1.89,0,0,1-.79-1.56h.81a1.42,1.42,0,0,0,.59,1.11,2.47,2.47,0,0,0,1.46.39,2.28,2.28,0,0,0,1.36-.37A1.12,1.12,0,0,0,186.83,161.75Z" transform="translate(-11.89 -87.64)"/><path class="cls-5" d="M192.28,163.74a3.14,3.14,0,0,1-2.85-1.73,4,4,0,0,1-.42-1.84v-.29a4.3,4.3,0,0,1,.41-1.89,3.34,3.34,0,0,1,1.13-1.33,2.82,2.82,0,0,1,1.58-.48,2.6,2.6,0,0,1,2.1.91,3.66,3.66,0,0,1,.78,2.47V160h-5.2v.15a3.05,3.05,0,0,0,.71,2.06,2.28,2.28,0,0,0,1.79.83,2.58,2.58,0,0,0,1.14-.24,2.41,2.41,0,0,0,.9-.75l.51.38A3,3,0,0,1,192.28,163.74Zm-.15-6.87a2,2,0,0,0-1.53.67,3,3,0,0,0-.76,1.79h4.37v-.09a2.64,2.64,0,0,0-.6-1.71A1.86,1.86,0,0,0,192.13,156.87Z" transform="translate(-11.89 -87.64)"/><path class="cls-5" d="M199.27,163.06a2.12,2.12,0,0,0,1.42-.48,1.67,1.67,0,0,0,.61-1.22h.78a2.38,2.38,0,0,1-.42,1.21,2.67,2.67,0,0,1-1,.86,3.06,3.06,0,0,1-1.37.31,2.81,2.81,0,0,1-2.27-1,4,4,0,0,1-.84-2.68v-.24a4.62,4.62,0,0,1,.38-1.91,3,3,0,0,1,1.08-1.28,3,3,0,0,1,1.65-.45,2.76,2.76,0,0,1,2,.72,2.61,2.61,0,0,1,.84,1.88h-.78a1.95,1.95,0,0,0-2-1.91,2,2,0,0,0-1.7.79,3.56,3.56,0,0,0-.6,2.21v.23a3.51,3.51,0,0,0,.6,2.18A2,2,0,0,0,199.27,163.06Z" transform="translate(-11.89 -87.64)"/><path class="cls-5" d="M208.37,162.68a2.6,2.6,0,0,1-2.32,1.06,2.25,2.25,0,0,1-1.77-.68,2.94,2.94,0,0,1-.62-2v-4.74h.8V161c0,1.39.56,2.08,1.68,2.08a2.06,2.06,0,0,0,2.22-1.45v-5.27h.81v7.28h-.78Z" transform="translate(-11.89 -87.64)"/><path class="cls-5" d="M214.63,157a3.16,3.16,0,0,0-.55,0,2,2,0,0,0-1.27.42,2.32,2.32,0,0,0-.75,1.22v5h-.8v-7.28h.79v1.16a2.15,2.15,0,0,1,2.06-1.3,1.3,1.3,0,0,1,.53.09Z" transform="translate(-11.89 -87.64)"/><path class="cls-5" d="M215.86,154.21a.56.56,0,0,1,.14-.38.53.53,0,0,1,.41-.16.54.54,0,0,1,.41.16.52.52,0,0,1,.15.38.5.5,0,0,1-.15.38.54.54,0,0,1-.41.16.53.53,0,0,1-.41-.16A.54.54,0,0,1,215.86,154.21Zm.95,9.39H216v-7.28h.81Z" transform="translate(-11.89 -87.64)"/><path class="cls-5" d="M220.25,154.45v1.87h1.51V157h-1.51v4.86a1.47,1.47,0,0,0,.22.9.84.84,0,0,0,.73.3,4.35,4.35,0,0,0,.65-.07l0,.66a2.81,2.81,0,0,1-.86.11,1.43,1.43,0,0,1-1.2-.48,2.23,2.23,0,0,1-.38-1.42V157H218.1v-.66h1.34v-1.87Z" transform="translate(-11.89 -87.64)"/><path class="cls-5" d="M225.74,162.45l2.12-6.13h.87l-3.11,8.52-.16.38a2,2,0,0,1-1.85,1.33,2,2,0,0,1-.62-.1v-.66l.42,0a1.49,1.49,0,0,0,1-.3,2.23,2.23,0,0,0,.62-1l.36-1-2.75-7.22h.88Z" transform="translate(-11.89 -87.64)"/><path class="cls-2" d="M49.61,94.89l-30.6,6c-.18,12.42,1.92,24.24,6.28,33.91a62.4,62.4,0,0,0,22.52,26.34h0l1.8,1.22,1.8-1.22a62.38,62.38,0,0,0,22.51-26.34c4.37-9.67,6.47-21.49,6.29-33.91Z" transform="translate(-11.89 -87.64)"/><path class="cls-1" d="M45.82,164a66,66,0,0,1-23.77-27.83c-4.51-10-6.79-22.24-6.6-35.43l.05-2.88,34.11-6.64L83.72,97.9l0,2.88c.2,13.19-2.09,25.44-6.6,35.43A65.82,65.82,0,0,1,53.39,164l-3.78,2.55Z" transform="translate(-11.89 -87.64)"/><path class="cls-3" d="M43.84,167a69.47,69.47,0,0,1-25-29.32c-4.72-10.46-7.11-23.23-6.91-36.94L12,95l37.62-7.32L87.23,95l.09,5.77c.2,13.71-2.19,26.48-6.92,36.94a69.37,69.37,0,0,1-25,29.32l-5.77,3.88Z" transform="translate(-11.89 -87.64)"/><path class="cls-1" d="M45.82,164a66,66,0,0,1-23.77-27.83c-4.51-10-6.79-22.24-6.6-35.43l.05-2.88,34.11-6.64L83.72,97.9l0,2.88c.2,13.19-2.09,25.44-6.6,35.43A65.82,65.82,0,0,1,53.39,164l-3.78,2.55Z" transform="translate(-11.89 -87.64)"/><path class="cls-4" d="M49.61,94.89l-30.6,6c-.18,12.42,1.92,24.24,6.28,33.91a62.4,62.4,0,0,0,22.52,26.34h0l1.8,1.22,1.8-1.22a62.38,62.38,0,0,0,22.51-26.34c4.37-9.67,6.47-21.49,6.29-33.91Z" transform="translate(-11.89 -87.64)"/><path class="cls-1" d="M51.29,131.47a8.34,8.34,0,1,1,5.89-14.24l7.69-7.69a19.23,19.23,0,1,0,0,27.17L57.18,129A8.31,8.31,0,0,1,51.29,131.47Z" transform="translate(-11.89 -87.64)"/></svg>
