<?xml version="1.0" encoding="UTF-8"?>
<!-- Generator: Adobe Illustrator 28.0.0, SVG Export Plug-In . SVG Version: 6.00 Build 0)  -->
<svg version="1.1" id="Vrstva_1" xmlns="http://www.w3.org/2000/svg" xmlns:xlink="http://www.w3.org/1999/xlink" x="0px" y="0px" viewBox="0 0 1300 300" style="enable-background:new 0 0 1300 300;" xml:space="preserve">
<style type="text/css">
	.st0{fill:#192A47;}
</style>
<rect x="290.3" y="160.1" class="st0" width="46.5" height="124.2"/>
<polygon class="st0" points="438.9,160.1 438.9,248.7 437.3,248.7 415.5,160.1 346.1,160.1 346.1,284.3 386.3,284.3 386.3,193.3   409.7,284.3 477.4,284.3 477.4,160.1 "/>
<polygon class="st0" points="617,160.1 617,197.4 657.5,197.4 657.5,284.3 704,284.3 704,197.4 744.1,197.4 744.1,160.1 "/>
<path class="st0" d="M881.8,196c-3.5-8.6-8.8-16.3-16.1-22.1c-10.2-8.1-23.3-11.6-36.3-13c-11.3-1.2-22.8-0.8-33.8,2.2  c-11.3,3.1-22.9,9.2-30.1,18.6c-7.6,9.8-10.9,22.2-11.8,34.4c-0.1,2-0.2,4-0.2,5.9c0,15.8,3.9,32.3,14.6,43.8  c11.7,12.6,29.8,17.4,47,18.3c10.9,0.6,21.9-0.2,32.2-3.5c10.4-3.3,20.1-9.2,26.9-17.7c7.4-9.3,11-21.1,12.2-32.9  C887.5,218.6,886.1,206.6,881.8,196 M838.2,231.2c-0.1,1.5-0.3,2.9-0.6,4.4c-1,6.2-3.4,12.5-8.4,16.2c-6,4.4-15.2,3.7-20.4-1.6  c-4.8-4.9-5.8-12.2-6.4-19c-0.6-6.4-1.1-12.9-0.4-19.4c0.7-6.9,2.6-15.5,8.3-20c5-3.9,12.6-4.4,17.8-0.8c3.2,2.2,5.5,5.6,6.9,9.3  c1.4,3.6,2,7.5,2.5,11.4C838.4,218.1,838.8,224.7,838.2,231.2"/>
<path class="st0" d="M1208.3,161.2c-5.6,0.4-11.1,1.1-16.6,2.3c-10,2.1-20.3,5.9-27.5,13.4c-7.7,8.1-9.2,21.5-6,31.8  c2.8,9.2,9.6,17.1,18.2,21.4c11.8,5.9,26.2,4.9,38.2,10.4c3.5,1.6,7.2,5,5.9,8.6c-0.7,2-2.8,3.2-4.8,3.9c-5.7,2.1-11.8,2.2-17.9,1.9  c-13.2-0.7-26.3-3.3-38.8-7.7c0,10.3,0,20.5,0,30.8c21.3,5.9,43.7,7.9,65.5,5c13-1.7,26.8-5.8,34.9-16.1c4.5-5.7,6.9-13,7.5-20.3  c0.5-6.7-0.5-13.6-3.9-19.5c-4.7-8.2-13.4-13.4-22.3-16.4c-8.9-3-18.4-4.3-27.5-6.8c-2.5-0.7-5-1.5-7-3.2c-1.9-1.7-3.1-4.5-2.2-6.9  c1.2-3.3,5.4-4.3,8.9-4.6c15.6-1.4,31.5,0.3,46.4,4.9c0-10.1,0-20.3,0.1-30.4C1242.4,161.7,1225.2,160,1208.3,161.2"/>
<path class="st0" d="M112.3,14c15.2-0.1,30.6,6.3,40.9,17.6c0.9,1,1.9,2.1,2.7,3.2c13.6,17.8,14.2,44.4,1.5,62.8  c-12.7,18.4-37.8,27.3-59.3,20.9C76.7,112.1,60.5,90.9,60,68.5c-0.5-21.8,13.8-43.1,34-51.1C99.9,15.1,106.1,14,112.3,14"/>
<path class="st0" d="M236.4,71.2c-1.7,0.2-3.1,0.4-3.5,0.4c-3.5,0.6-6.9,1.4-10.4,2.3c-6.5,1.7-13,3.8-19.1,6.7  c-11.6,5.6-22.6,12.7-32.4,21.1c-4.1,3.5-8.1,7.3-11.8,11.2c-1.7,1.8-3.4,3.7-4.5,5.9c-1.1,2.1-1.6,4.5-2.1,6.8  c-8.5,38.1-17,76.3-25.6,114.4c-1.8,8.1-3.6,16.5-1.4,24.5c2.3,8.4,9.2,15.4,17.5,18c5.3,1.7,11,1.6,16.6,1.6  c17.5-0.1,35-0.2,52.5-0.3c-8.2-7.5-10.8-19.6-10.1-30.7c0.8-11.1,4.4-21.8,6.9-32.6c2.2-9.6,3.5-19.5,6.4-29  c2.9-9.5,7.5-18.7,15.1-25c9.1-7.5,21.5-10,33.3-9.5c1.6-7.9,3.2-15.9,4.8-23.8c-13.3,0-26.6,0-39.9,0c4.7-21.1,9.5-42.1,14.2-63.2  C243,70.4,239.3,70.9,236.4,71.2"/>
<path class="st0" d="M138.4,128.3c-12.2,4.5-25.5,4.5-38.4,4.4c-11.5-0.1-26.4-2.1-35.9,6c-2.2,1.9-4.1,4.2-5.5,6.7  c-3.5,6-5,12.9-6.5,19.6c-5.7,26.3-11.4,52.5-17.1,78.8c-1.1,5.2-2.3,10.6-1.5,15.9c0.8,5.9,4,11.2,8.1,15.5  c3.7,3.8,8.3,6.8,13.5,8.1c3.9,1,8,1,12,1c19.1,0,38.2-0.1,57.3-0.1c-5.6-7.6-11.1-15.9-12-25.4c-0.6-6,0.8-12,2.1-17.9  c8.4-37.7,16.9-75.4,25.3-113.2C139.3,127.9,138.9,128.1,138.4,128.3"/>
<path class="st0" d="M970.4,160.1c0,20.1,0.1,40.2,0.1,60.3c0,5.9,0,11.8-0.4,17.7c-0.2,2.4-0.5,4.9-1.4,7.1  c-2.9,6.9-12.6,9.9-18.9,5.7c-3.4-2.3-5.6-6.2-6.6-10.2c-1-4-1-8.2-1-12.4c0-22.8,0-45.5-0.1-68.3h-22.4h-9.1h-14.7v11.2  c0,3,0,6,0,9c0,7.5,0,15,0,22.5c0,7.3,0,14.7,0,22c0,11.2,0.1,22.9,5.1,33c5.1,10.3,14.8,17.8,25.6,21.9c10.7,4.1,22.4,5,33.9,4.6  c8.5-0.3,17-1.2,25-4c8-2.8,15.5-7.5,20.6-14.3c8.7-11.7,9.1-27.3,9.1-41.9c0-21.3,0.1-42.7,0.1-64  C1000.4,160.1,985.4,160.1,970.4,160.1"/>
<path class="st0" d="M1136.7,241.9C1136.7,241.9,1136.7,241.8,1136.7,241.9c-4.3-7.5-11.5-13.2-19.7-15.8  c8.4-1.9,16.9-5.5,21.9-12.5c4.9-6.7,5.8-15.6,5.1-23.9c-0.4-5.4-1.5-10.9-4.6-15.3c-3.3-4.8-8.6-8-14.1-10  c-11.8-4.4-24.8-4.5-37.4-4.4c-20,0.1-40.1,0.1-60.1,0.2c0,0-0.1,0-0.1,0h-3.2v9.6v1.8v15v30.1v60.1v7.5h46.5c0-14.1,0-28.1,0-42.2  c3.9-0.3,7.9-0.7,11.7,0c3.9,0.7,7.7,2.6,9.9,5.8c1.9,2.8,2.4,6.2,2.9,9.5c1.4,9,2.7,17.9,4.1,26.9c15.9,0,31.7,0,47.6,0  C1142.7,270.4,1144,254.6,1136.7,241.9 M1083.4,215l-2.9-0.2h-12.2v-27.2h13.5h1.6v0c7.4-0.4,15.1,6,15,13.4  C1098.4,208.6,1090.9,215.8,1083.4,215"/>
<path class="st0" d="M568.6,220.7c0,10.9,0,21.7-0.1,32.6c-11.6,4.9-26.5-0.6-32-11.9c-2.1-4.2-2.9-8.9-3.2-13.6  c-0.6-11.2,2.5-23.3,11.2-30.3c5.8-4.6,13.3-6.4,20.6-7.1c12.8-1.2,25.9,0.8,37.8,5.6c0-10.3,0-20.7,0.1-31  c-13.5-3.1-27.4-4.7-41.2-4.7c-5.9,0-12,0.4-18.1,1.2c-17.3,2.4-34.4,9-44.9,23.2c-10.3,13.9-14.5,32.3-11,49.3  c4,19.5,18.1,36.5,36.4,44.3c14.1,6,29.9,6.4,45.3,5.6c13-0.7,25.9-2.2,38.4-5.5c0-19.3,0-38.5,0-57.8H568.6z"/>
<g>
</g>
<g>
</g>
<g>
</g>
<g>
</g>
<g>
</g>
<g>
</g>
</svg>