<?xml version="1.0" standalone="no"?>
<!DOCTYPE svg PUBLIC "-//W3C//DTD SVG 20010904//EN"
 "http://www.w3.org/TR/2001/REC-SVG-20010904/DTD/svg10.dtd">
<svg version="1.0" xmlns="http://www.w3.org/2000/svg"
 width="363.000000pt" height="363.000000pt" viewBox="0 0 363.000000 363.000000"
 preserveAspectRatio="xMidYMid meet">
<metadata>
Created by potrace 1.11, written by Peter Selinger 2001-2013
</metadata>
<g transform="translate(0.000000,363.000000) scale(0.100000,-0.100000)"
fill="#000000" stroke="none">
<path d="M1175 3618 c-51 -19 -661 -457 -674 -484 -15 -34 -16 -2372 0 -2406
5 -13 55 -54 110 -93 56 -38 113 -80 129 -92 15 -13 32 -23 38 -23 6 0 12 -4
14 -8 2 -5 41 -35 88 -67 47 -33 121 -85 165 -116 44 -32 83 -55 87 -53 5 3 8
1 8 -5 0 -18 90 -72 121 -73 34 -1 58 24 60 62 0 14 1 519 1 1123 1 603 3
1097 4 1097 4 0 238 -230 580 -570 143 -143 264 -258 267 -255 4 3 5 2 3 -1
-3 -3 23 -34 57 -68 l62 -61 0 -490 c1 -470 2 -492 20 -516 11 -15 27 -30 36
-35 38 -20 163 -108 305 -214 23 -16 46 -30 52 -30 6 0 12 -4 14 -8 7 -18 308
-222 334 -226 20 -4 35 1 51 16 l22 21 0 1769 c-1 1730 -1 1770 -20 1789 -10
10 -25 19 -33 19 -18 0 -69 -19 -76 -28 -3 -4 -13 -11 -22 -17 -18 -11 -428
-303 -570 -407 -69 -50 -95 -75 -103 -100 -7 -19 -11 -101 -10 -195 0 -90 0
-163 -1 -163 -4 0 -107 99 -271 261 -109 108 -177 168 -184 163 -7 -4 -9 -3
-6 4 6 9 -137 156 -375 386 -40 37 -91 77 -116 87 -48 21 -120 24 -167 7z"/>
</g>
</svg>
