<?xml version="1.0" standalone="no"?>
<!DOCTYPE svg PUBLIC "-//W3C//DTD SVG 20010904//EN"
 "http://www.w3.org/TR/2001/REC-SVG-20010904/DTD/svg10.dtd">
<svg version="1.0" xmlns="http://www.w3.org/2000/svg"
 width="186.000000pt" height="186.000000pt" viewBox="0 0 186.000000 186.000000"
 preserveAspectRatio="xMidYMid meet">
<metadata>
Created by potrace 1.11, written by Peter Selinger 2001-2013
</metadata>
<g transform="translate(0.000000,186.000000) scale(0.100000,-0.100000)"
fill="#000000" stroke="none">
<path d="M595 1845 c-16 -8 -97 -62 -180 -122 l-150 -108 -2 -621 -3 -621 56
-39 c30 -21 61 -43 68 -49 6 -5 19 -14 28 -20 32 -21 75 -51 124 -87 28 -21
56 -38 62 -38 7 0 12 -4 12 -8 0 -5 11 -14 25 -20 53 -24 52 -33 51 586 -1
504 1 569 14 559 21 -17 120 -113 313 -304 152 -151 167 -170 168 -202 0 -20
2 -136 2 -259 2 -187 4 -225 17 -232 8 -4 82 -56 164 -114 81 -58 152 -106
157 -106 5 0 9 -4 9 -8 0 -5 11 -14 25 -20 19 -9 27 -8 40 4 13 14 15 120 15
919 0 856 -1 905 -18 914 -16 9 -47 0 -62 -18 -5 -6 -18 -15 -117 -84 -25 -18
-58 -41 -73 -52 -15 -11 -53 -37 -84 -59 -31 -21 -61 -46 -66 -55 -5 -10 -8
-57 -7 -104 1 -48 1 -87 0 -87 -3 0 -44 40 -318 309 -77 76 -150 143 -162 149
-29 16 -71 14 -108 -3z"/>
</g>
</svg>
